<?xml version="1.0" encoding="utf-8"?>
<!-- Generator: Adobe Illustrator 23.0.1, SVG Export Plug-In . SVG Version: 6.00 Build 0)  -->
<svg version="1.1" id="Camada_1" xmlns="http://www.w3.org/2000/svg" xmlns:xlink="http://www.w3.org/1999/xlink" x="0px" y="0px"
	 viewBox="0 0 300 100" style="enable-background:new 0 0 300 100;" xml:space="preserve">
<g>
	<g>
		<path d="M19.93,68.39c-1.63,2.58-0.09,6.01,2.8,6.73C20.46,73.43,19.54,71.19,19.93,68.39z"/>
		<path d="M31.14,43.71c0.19-1.79,0.27-3.73,0.22-5.78c-0.27-11.77-4.1-17.59-6.36-20.02c-0.16-0.18-0.31-0.32-0.45-0.45
			c-0.03,0.01-0.06,0.03-0.1,0.04c-0.11,0.03-0.21,0.03-0.32,0c-0.05-0.02-0.1-0.04-0.14-0.06c-0.07-0.04-0.13-0.09-0.17-0.15
			c-0.05-0.06-0.09-0.13-0.11-0.2c-0.02-0.05-0.01-0.11-0.01-0.16c-0.01-0.01-0.02-0.01-0.03-0.02c-0.06-0.06-0.09-0.13-0.12-0.2
			c-0.09-0.01-0.18-0.01-0.26,0.04c0,0-0.01,0-0.01,0.01c0,0,0,0,0,0v16.42c0.02,0,0.03-0.01,0.05-0.01c2.46,0,4.45,1.99,4.45,4.45
			s-1.99,4.45-4.45,4.45c-0.02,0-0.03-0.01-0.05-0.01v13.2l1.83,0c0,0.21,0.01,0.45,0.02,0.69c0.64-0.34,1.66-1.04,2.7-2.44
			l5.83,2.97c0.11,0.06,0.25,0.05,0.36-0.01c0.11-0.06,0.18-0.18,0.19-0.3L31.14,43.71z"/>
		<path d="M39.2,69.11c-1.23-2.96-4.59-4.39-7.57-3.26c1.07,0.57,1.91,1.56,2.21,2.87c-1.7-2.26-3.94-3.19-6.74-2.78
			c0.98-0.59,2.1-0.75,3.14-0.57c-0.41-0.34-0.8-0.68-1.15-1.03c-3.06-3.01-3.8-6.31-3.93-8.39c-0.15,0.08-0.29,0.15-0.39,0.19
			l0.03,3.24c0,0.1-0.04,0.2-0.11,0.27c-0.07,0.07-0.17,0.11-0.27,0.11l-1.11-0.01v0l-1.11,0.01c-0.1,0-0.2-0.04-0.27-0.11
			c-0.07-0.07-0.11-0.17-0.11-0.27l0.03-3.24c-0.18-0.08-0.44-0.21-0.75-0.4c-0.17,4.66-2.87,7.9-5.67,10
			c1.08-0.02,2.17,0.34,3.03,1.16c-2.68-0.92-5.05-0.44-7.14,1.47c0.58-1.25,1.68-2.1,2.91-2.45c-1.14-0.24-2.35-0.17-3.51,0.31
			c-3.02,1.26-4.45,4.73-3.19,7.75c1.2,2.87,4.4,4.3,7.31,3.35c0.15-0.05,0.3-0.1,0.44-0.16c0.2-0.08,0.39-0.18,0.58-0.28
			c1.16,0.99,2.67,1.51,4.21,1.41c-0.82-0.59-1.44-1.45-1.69-2.54c1.7,2.27,3.94,3.19,6.74,2.78c-1.36,0.82-2.99,0.82-4.32,0.19
			c0.07,0.27,0.15,0.54,0.26,0.8c1.19,2.87,4.38,4.3,7.28,3.36c0.16-0.05,0.31-0.1,0.46-0.17c2.31-0.96,3.68-3.21,3.64-5.57
			c1.15,0.26,2.39,0.18,3.56-0.31C39.03,75.6,40.46,72.13,39.2,69.11z M19.93,68.39c-0.4,2.8,0.53,5.04,2.8,6.73
			C19.85,74.4,18.31,70.96,19.93,68.39z"/>
		<path d="M23.31,55.26v4.49l0,0v0l1.11,0.01c0.1,0,0.2-0.04,0.27-0.11c0.07-0.07,0.11-0.17,0.11-0.27l-0.03-3.24
			c0.1-0.04,0.24-0.11,0.39-0.19c-0.02-0.25-0.02-0.48-0.02-0.69L23.31,55.26z"/>
		<path d="M23.31,55.26v-13.2c-2.43-0.03-4.39-2.01-4.39-4.44s1.96-4.41,4.39-4.44V16.76c0,0,0,0,0,0c0,0-0.01-0.01-0.01-0.01
			c-0.13-0.08-0.29-0.08-0.42,0c-0.02,0.01-0.53,0.36-1.27,1.16c-2.26,2.43-6.09,8.25-6.36,20.02c-0.05,2.04,0.03,3.99,0.22,5.78
			l-3.09,12.46c0.01,0.13,0.08,0.24,0.19,0.3c0.11,0.06,0.24,0.07,0.36,0.01l5.83-2.97c0.86,1.16,1.71,1.83,2.34,2.23
			c0.01-0.16,0.03-0.31,0.03-0.48L23.31,55.26z"/>
		<polygon points="23.31,42.07 23.31,42.07 23.31,55.26 23.31,55.26 		"/>
		<polygon points="23.31,33.18 23.31,33.18 23.31,16.76 23.31,16.75 23.31,16.76 		"/>
		<path d="M21.82,59.39c0,0.1,0.04,0.2,0.11,0.27c0.07,0.07,0.17,0.11,0.27,0.11l1.11-0.01v-4.49l-2.18,0
			c0,0.17-0.03,0.32-0.03,0.48c0.31,0.19,0.57,0.32,0.75,0.4L21.82,59.39z"/>
		<rect x="23.31" y="55.26" width="0" height="4.49"/>
	</g>
	<g>
		<path d="M88.34,31.51h4.97v36.51h-4.05L68.34,40.43v27.58h-4.97V31.51h4l20.97,27.63V31.51z"/>
		<path d="M125,42.17v25.84h-5.13V63.6c-0.75,1.54-1.87,2.72-3.36,3.54c-1.49,0.82-3.22,1.23-5.2,1.23c-2.29,0-4.3-0.55-6.02-1.64
			c-1.73-1.09-3.07-2.64-4.02-4.64c-0.96-2-1.44-4.33-1.44-7c0-2.67,0.49-5.03,1.46-7.08c0.97-2.05,2.33-3.64,4.08-4.77
			c1.74-1.13,3.72-1.69,5.95-1.69c1.98,0,3.71,0.42,5.18,1.26c1.47,0.84,2.6,2.02,3.39,3.56v-4.21H125z M117.95,61.83
			c1.28-1.62,1.92-3.9,1.92-6.84c0-2.97-0.64-5.26-1.92-6.87c-1.28-1.61-3.1-2.41-5.46-2.41c-2.33,0-4.15,0.83-5.46,2.49
			c-1.32,1.66-1.97,3.96-1.97,6.9c0,2.91,0.66,5.16,1.97,6.77c1.32,1.61,3.15,2.41,5.51,2.41
			C114.86,64.27,116.66,63.46,117.95,61.83z"/>
		<path d="M158.02,31.51h4.97v36.51h-4.05l-20.92-27.58v27.58h-4.97V31.51h4l20.97,27.63V31.51z"/>
		<path d="M193.49,42.17v25.84h-5.02V63.7c-0.82,1.5-1.95,2.66-3.38,3.46c-1.44,0.8-3.06,1.21-4.87,1.21
			c-6.22,0-9.33-3.45-9.33-10.36V42.17h5.13v15.79c0,2.12,0.44,3.68,1.31,4.69c0.87,1.01,2.2,1.51,3.97,1.51
			c2.12,0,3.82-0.68,5.1-2.05c1.28-1.37,1.92-3.18,1.92-5.44V42.17H193.49z"/>
		<path d="M219.39,42.22h5.18l-11.23,25.79h-4.67l-11.13-25.79h5.49l8.1,19.95L219.39,42.22z"/>
		<path d="M250.25,55.19H231.8c0.17,6.05,2.92,9.07,8.25,9.07c2.97,0,5.69-0.97,8.15-2.92l1.59,3.69c-1.16,1.03-2.64,1.84-4.44,2.44
			c-1.79,0.6-3.6,0.9-5.41,0.9c-4.14,0-7.38-1.19-9.74-3.56c-2.36-2.38-3.54-5.63-3.54-9.77c0-2.63,0.52-4.97,1.56-7.02
			c1.04-2.05,2.5-3.64,4.38-4.77c1.88-1.13,4.02-1.69,6.41-1.69c3.49,0,6.23,1.13,8.23,3.38c2,2.26,3,5.38,3,9.38V55.19z
			 M234.36,47.14c-1.23,1.16-2.02,2.82-2.36,4.97h13.69c-0.21-2.19-0.87-3.85-2-5c-1.13-1.15-2.65-1.72-4.56-1.72
			C237.18,45.4,235.59,45.98,234.36,47.14z"/>
		<path d="M294.3,51.91v16.1h-5.18V52.17c0-2.22-0.38-3.85-1.15-4.87c-0.77-1.03-2.01-1.54-3.72-1.54c-1.98,0-3.55,0.68-4.69,2.05
			c-1.15,1.37-1.72,3.23-1.72,5.59v14.61h-5.18V52.17c0-2.22-0.39-3.85-1.15-4.87c-0.77-1.03-2.01-1.54-3.72-1.54
			c-1.98,0-3.55,0.68-4.72,2.05c-1.16,1.37-1.74,3.23-1.74,5.59v14.61h-5.13V49.45c0-2.7-0.14-5.13-0.41-7.28h4.82l0.46,4.31
			c0.75-1.57,1.83-2.79,3.23-3.64c1.4-0.85,3.04-1.28,4.92-1.28c4,0,6.61,1.66,7.84,4.97c0.79-1.54,1.94-2.75,3.46-3.64
			c1.52-0.89,3.24-1.33,5.15-1.33C291.42,41.56,294.3,45.01,294.3,51.91z"/>
	</g>
</g>
</svg>
